REM DIRINDEX 1\5,1\2\6,1\2\7,1\3\8,1\3\9,1\4\10,1\4\11,1\4\12
REM DIRNAME cjc026,folder01,folder02,folder03,folder04,folder05,folder06,folder07,folder08,folder09,folder10,folder11
TITLE ""
FILE "EJE_DB3000_5th_1A_06.mp3" MP3
  TRACK 01 AUDIO
    TITLE "0:"
    INDEX 01 00:00:00
  TRACK 02 AUDIO
    TITLE "10:cjc026_07020"
    INDEX 01 00:00:08
  TRACK 03 AUDIO
    TITLE "0:"
    INDEX 01 00:01:22
  TRACK 04 AUDIO
    TITLE "11:cjc026_07021"
    INDEX 01 00:01:57
  TRACK 05 AUDIO
    TITLE "0:"
    INDEX 01 00:03:12
  TRACK 06 AUDIO
    TITLE "12:cjc026_07022"
    INDEX 01 00:03:45
  TRACK 07 AUDIO
    TITLE "0:"
    INDEX 01 00:04:61
  TRACK 08 AUDIO
    TITLE "10:cjc026_07023"
    INDEX 01 00:05:21
  TRACK 09 AUDIO
    TITLE "0:"
    INDEX 01 00:06:46
  TRACK 10 AUDIO
    TITLE "11:cjc026_07024"
    INDEX 01 00:07:06
  TRACK 11 AUDIO
    TITLE "0:"
    INDEX 01 00:09:02
  TRACK 12 AUDIO
    TITLE "12:cjc026_07025"
    INDEX 01 00:09:37
  TRACK 13 AUDIO
    TITLE "0:"
    INDEX 01 00:10:62
  TRACK 14 AUDIO
    TITLE "10:cjc026_07026"
    INDEX 01 00:11:22
  TRACK 15 AUDIO
    TITLE "0:"
    INDEX 01 00:12:36
  TRACK 16 AUDIO
    TITLE "11:cjc026_07027"
    INDEX 01 00:12:72
  TRACK 17 AUDIO
    TITLE "0:"
    INDEX 01 00:14:24
  TRACK 18 AUDIO
    TITLE "12:cjc026_07028"
    INDEX 01 00:14:59
  TRACK 19 AUDIO
    TITLE "0:"
    INDEX 01 00:15:71
  TRACK 20 AUDIO
    TITLE "10:cjc026_07029"
    INDEX 01 00:16:31
  TRACK 21 AUDIO
    TITLE "0:"
    INDEX 01 00:17:48
  TRACK 22 AUDIO
    TITLE "11:cjc026_07030"
    INDEX 01 00:18:08
  TRACK 23 AUDIO
    TITLE "0:"
    INDEX 01 00:19:35
  TRACK 24 AUDIO
    TITLE "12:cjc026_07031"
    INDEX 01 00:19:70
  TRACK 25 AUDIO
    TITLE "0:"
    INDEX 01 00:21:12
  TRACK 26 AUDIO
    TITLE "10:cjc026_07032"
    INDEX 01 00:21:47
  TRACK 27 AUDIO
    TITLE "0:"
    INDEX 01 00:22:56
  TRACK 28 AUDIO
    TITLE "11:cjc026_07033"
    INDEX 01 00:23:19
  TRACK 29 AUDIO
    TITLE "0:"
    INDEX 01 00:24:33
  TRACK 30 AUDIO
    TITLE "12:cjc026_07034"
    INDEX 01 00:24:68
  TRACK 31 AUDIO
    TITLE "0:"
    INDEX 01 00:26:02
  TRACK 32 AUDIO
    TITLE "10:cjc026_07035"
    INDEX 01 00:26:37
  TRACK 33 AUDIO
    TITLE "0:"
    INDEX 01 00:27:51
  TRACK 34 AUDIO
    TITLE "11:cjc026_07036"
    INDEX 01 00:28:11
  TRACK 35 AUDIO
    TITLE "0:"
    INDEX 01 00:29:20
  TRACK 36 AUDIO
    TITLE "12:cjc026_07037"
    INDEX 01 00:29:57
  TRACK 37 AUDIO
    TITLE "0:"
    INDEX 01 00:30:72
  TRACK 38 AUDIO
    TITLE "10:cjc026_07038"
    INDEX 01 00:31:32
  TRACK 39 AUDIO
    TITLE "0:"
    INDEX 01 00:32:46
  TRACK 40 AUDIO
    TITLE "11:cjc026_07039"
    INDEX 01 00:33:06
  TRACK 41 AUDIO
    TITLE "0:"
    INDEX 01 00:34:17
  TRACK 42 AUDIO
    TITLE "12:cjc026_07040"
    INDEX 01 00:34:52
  TRACK 43 AUDIO
    TITLE "0:"
    INDEX 01 00:35:66
  TRACK 44 AUDIO
    TITLE "10:cjc026_07041"
    INDEX 01 00:36:32
  TRACK 45 AUDIO
    TITLE "0:"
    INDEX 01 00:37:46
  TRACK 46 AUDIO
    TITLE "11:cjc026_07042"
    INDEX 01 00:38:09
  TRACK 47 AUDIO
    TITLE "0:"
    INDEX 01 00:39:28
  TRACK 48 AUDIO
    TITLE "12:cjc026_07043"
    INDEX 01 00:39:66
  TRACK 49 AUDIO
    TITLE "0:"
    INDEX 01 00:41:05
  TRACK 50 AUDIO
    TITLE "10:cjc026_07044"
    INDEX 01 00:41:43
  TRACK 51 AUDIO
    TITLE "0:"
    INDEX 01 00:42:60
  TRACK 52 AUDIO
    TITLE "11:cjc026_07045"
    INDEX 01 00:43:20
  TRACK 53 AUDIO
    TITLE "0:"
    INDEX 01 00:44:31
  TRACK 54 AUDIO
    TITLE "12:cjc026_07046"
    INDEX 01 00:44:66
  TRACK 55 AUDIO
    TITLE "0:"
    INDEX 01 00:46:06
  TRACK 56 AUDIO
    TITLE "10:cjc026_07047"
    INDEX 01 00:46:43
  TRACK 57 AUDIO
    TITLE "0:"
    INDEX 01 00:47:55
  TRACK 58 AUDIO
    TITLE "11:cjc026_07048"
    INDEX 01 00:48:20
  TRACK 59 AUDIO
    TITLE "0:"
    INDEX 01 00:49:40
  TRACK 60 AUDIO
    TITLE "12:cjc026_07049"
    INDEX 01 00:50:05
  TRACK 61 AUDIO
    TITLE "0:"
    INDEX 01 00:51:14
  TRACK 62 AUDIO
    TITLE "10:cjc026_07050"
    INDEX 01 00:51:54
  TRACK 63 AUDIO
    TITLE "0:"
    INDEX 01 00:52:69
  TRACK 64 AUDIO
    TITLE "11:cjc026_07051"
    INDEX 01 00:53:29
  TRACK 65 AUDIO
    TITLE "0:"
    INDEX 01 00:54:48
  TRACK 66 AUDIO
    TITLE "12:cjc026_07052"
    INDEX 01 00:55:08
  TRACK 67 AUDIO
    TITLE "0:"
    INDEX 01 00:56:25
  TRACK 68 AUDIO
    TITLE "10:cjc026_07053"
    INDEX 01 00:56:57
  TRACK 69 AUDIO
    TITLE "0:"
    INDEX 01 00:58:02
  TRACK 70 AUDIO
    TITLE "11:cjc026_07054"
    INDEX 01 00:58:37
  TRACK 71 AUDIO
    TITLE "0:"
    INDEX 01 01:01:47
  TRACK 72 AUDIO
    TITLE "12:cjc026_07055"
    INDEX 01 01:02:04
  TRACK 73 AUDIO
    TITLE "0:"
    INDEX 01 01:03:24
  TRACK 74 AUDIO
    TITLE "10:cjc026_07056"
    INDEX 01 01:03:59
  TRACK 75 AUDIO
    TITLE "0:"
    INDEX 01 01:05:09
  TRACK 76 AUDIO
    TITLE "11:cjc026_07057"
    INDEX 01 01:05:47
  TRACK 77 AUDIO
    TITLE "0:"
    INDEX 01 01:06:66
  TRACK 78 AUDIO
    TITLE "12:cjc026_07058"
    INDEX 01 01:07:26
  TRACK 79 AUDIO
    TITLE "0:"
    INDEX 01 01:08:54
